<svg width="672" height="350"><g transform="translate(50,20)"><path class="area" d="M0,21.428571428571445L58.971428571428575,42.85714285714289L86.00000000000001,0L90.91428571428573,85.71428571428575L98.28571428571429,85.71428571428575L110.57142857142858,104.76190476190479L122.85714285714286,107.14285714285717L125.31428571428573,67.34693877551024L130.22857142857143,57.14285714285714L135.14285714285717,108.57142857142858L140.05714285714288,106.12244897959187L142.5142857142857,100L147.42857142857144,128.57142857142858L159.71428571428572,78.57142857142858L164.62857142857143,114.28571428571428L169.54285714285717,110.71428571428572L172.00000000000003,117.85714285714286L174.45714285714288,107.14285714285717L176.91428571428574,85.71428571428575L179.3714285714286,142.8571428571429L184.28571428571428,125.00000000000003L186.7428571428572,157.14285714285714L189.20000000000002,108.57142857142858L196.57142857142858,135.71428571428572L199.02857142857144,135.71428571428572L208.8571428571429,123.57142857142861L213.7714285714286,135.71428571428572L221.14285714285717,140.00000000000003L228.51428571428573,121.42857142857142L230.9714285714286,150L233.42857142857144,131.97278911564626L243.25714285714287,135.71428571428572L245.71428571428572,155.1948051948052L258,138.0952380952381L265.3714285714286,164.2857142857143L270.28571428571433,147.40259740259742L277.6571428571429,162.5L282.5714285714286,151.29870129870133L292.40000000000003,161.90476190476193L294.8571428571429,157.14285714285714L307.14285714285717,148.21428571428572L319.42857142857144,145.7142857142857L331.7142857142857,161.90476190476193L336.62857142857143,171.42857142857144L339.08571428571435,161.90476190476193L341.54285714285714,157.14285714285714L344.00000000000006,148.21428571428572L348.91428571428577,171.42857142857144L356.28571428571433,162.60504201680675L368.57142857142856,161.60714285714286L380.8571428571429,166.07142857142858L393.14285714285717,161.42857142857144L398.0571428571429,157.14285714285714L405.4285714285715,167.85714285714286L407.8857142857143,155.35714285714286L410.34285714285716,152.38095238095238L417.7142857142858,164.2857142857143L422.6285714285715,157.14285714285714L430,153.57142857142858L444.7428571428572,159.52380952380952L454.5714285714286,168.25396825396828L479.1428571428572,175L484.05714285714294,173.8095238095238L486.51428571428573,173.8095238095238L503.7142857142857,178.57142857142856L506.17142857142863,171.42857142857144L518.4571428571429,178.57142857142856L523.3714285714286,178.57142857142856L540.5714285714287,176.1904761904762L555.3142857142858,178.57142857142856L557.7714285714286,178.57142857142856L577.4285714285714,176.78571428571428L589.7142857142858,176.1904761904762L602,178.57142857142856L602,300L589.7142857142858,300L577.4285714285714,300L557.7714285714286,300L555.3142857142858,300L540.5714285714287,300L523.3714285714286,300L518.4571428571429,300L506.17142857142863,300L503.7142857142857,300L486.51428571428573,300L484.05714285714294,300L479.1428571428572,300L454.5714285714286,300L444.7428571428572,300L430,300L422.6285714285715,300L417.7142857142858,300L410.34285714285716,300L407.8857142857143,300L405.4285714285715,300L398.0571428571429,300L393.14285714285717,300L380.8571428571429,300L368.57142857142856,300L356.28571428571433,300L348.91428571428577,300L344.00000000000006,300L341.54285714285714,300L339.08571428571435,300L336.62857142857143,300L331.7142857142857,300L319.42857142857144,300L307.14285714285717,300L294.8571428571429,300L292.40000000000003,300L282.5714285714286,300L277.6571428571429,300L270.28571428571433,300L265.3714285714286,300L258,300L245.71428571428572,300L243.25714285714287,300L233.42857142857144,300L230.9714285714286,300L228.51428571428573,300L221.14285714285717,300L213.7714285714286,300L208.8571428571429,300L199.02857142857144,300L196.57142857142858,300L189.20000000000002,300L186.7428571428572,300L184.28571428571428,300L179.3714285714286,300L176.91428571428574,300L174.45714285714288,300L172.00000000000003,300L169.54285714285717,300L164.62857142857143,300L159.71428571428572,300L147.42857142857144,300L142.5142857142857,300L140.05714285714288,300L135.14285714285717,300L130.22857142857143,300L125.31428571428573,300L122.85714285714286,300L110.57142857142858,300L98.28571428571429,300L90.91428571428573,300L86.00000000000001,300L58.971428571428575,300L0,300Z"></path><g class="x axis" transform="translate(0,300)"><g class="tick major" style="opacity: 1; " transform="translate(12.285714285714286,0)"><line y2="6" x2="0"></line><text y="9" x="0" dy=".71em" style="text-anchor: middle; ">60</text></g><g class="tick major" style="opacity: 1; " transform="translate(61.42857142857143,0)"><line y2="6" x2="0"></line><text y="9" x="0" dy=".71em" style="text-anchor: middle; ">80</text></g><g class="tick major" style="opacity: 1; " transform="translate(110.57142857142858,0)"><line y2="6" x2="0"></line><text y="9" x="0" dy=".71em" style="text-anchor: middle; ">100</text></g><g class="tick major" style="opacity: 1; " transform="translate(159.71428571428572,0)"><line y2="6" x2="0"></line><text y="9" x="0" dy=".71em" style="text-anchor: middle; ">120</text></g><g class="tick major" style="opacity: 1; " transform="translate(208.8571428571429,0)"><line y2="6" x2="0"></line><text y="9" x="0" dy=".71em" style="text-anchor: middle; ">140</text></g><g class="tick major" style="opacity: 1; " transform="translate(258,0)"><line y2="6" x2="0"></line><text y="9" x="0" dy=".71em" style="text-anchor: middle; ">160</text></g><g class="tick major" style="opacity: 1; " transform="translate(307.14285714285717,0)"><line y2="6" x2="0"></line><text y="9" x="0" dy=".71em" style="text-anchor: middle; ">180</text></g><g class="tick major" style="opacity: 1; " transform="translate(356.28571428571433,0)"><line y2="6" x2="0"></line><text y="9" x="0" dy=".71em" style="text-anchor: middle; ">200</text></g><g class="tick major" style="opacity: 1; " transform="translate(405.4285714285715,0)"><line y2="6" x2="0"></line><text y="9" x="0" dy=".71em" style="text-anchor: middle; ">220</text></g><g class="tick major" style="opacity: 1; " transform="translate(454.5714285714286,0)"><line y2="6" x2="0"></line><text y="9" x="0" dy=".71em" style="text-anchor: middle; ">240</text></g><g class="tick major" style="opacity: 1; " transform="translate(503.7142857142857,0)"><line y2="6" x2="0"></line><text y="9" x="0" dy=".71em" style="text-anchor: middle; ">260</text></g><g class="tick major" style="opacity: 1; " transform="translate(552.8571428571429,0)"><line y2="6" x2="0"></line><text y="9" x="0" dy=".71em" style="text-anchor: middle; ">280</text></g><g class="tick major" style="opacity: 1; " transform="translate(602,0)"><line y2="6" x2="0"></line><text y="9" x="0" dy=".71em" style="text-anchor: middle; ">300</text></g><path class="domain" d="M0,6V0H602V6"></path></g><g class="y axis"><g class="tick major" style="opacity: 1; " transform="translate(0,300)"><line x2="-6" y2="0"></line><text x="-9" y="0" dy=".32em" style="text-anchor: end; ">0</text></g><g class="tick major" style="opacity: 1; " transform="translate(0,264.2857142857143)"><line x2="-6" y2="0"></line><text x="-9" y="0" dy=".32em" style="text-anchor: end; ">5</text></g><g class="tick major" style="opacity: 1; " transform="translate(0,228.57142857142856)"><line x2="-6" y2="0"></line><text x="-9" y="0" dy=".32em" style="text-anchor: end; ">10</text></g><g class="tick major" style="opacity: 1; " transform="translate(0,192.8571428571429)"><line x2="-6" y2="0"></line><text x="-9" y="0" dy=".32em" style="text-anchor: end; ">15</text></g><g class="tick major" style="opacity: 1; " transform="translate(0,157.14285714285714)"><line x2="-6" y2="0"></line><text x="-9" y="0" dy=".32em" style="text-anchor: end; ">20</text></g><g class="tick major" style="opacity: 1; " transform="translate(0,121.42857142857142)"><line x2="-6" y2="0"></line><text x="-9" y="0" dy=".32em" style="text-anchor: end; ">25</text></g><g class="tick major" style="opacity: 1; " transform="translate(0,85.71428571428575)"><line x2="-6" y2="0"></line><text x="-9" y="0" dy=".32em" style="text-anchor: end; ">30</text></g><g class="tick major" style="opacity: 1; " transform="translate(0,50.00000000000003)"><line x2="-6" y2="0"></line><text x="-9" y="0" dy=".32em" style="text-anchor: end; ">35</text></g><g class="tick major" style="opacity: 1; " transform="translate(0,14.285714285714278)"><line x2="-6" y2="0"></line><text x="-9" y="0" dy=".32em" style="text-anchor: end; ">40</text></g><path class="domain" d="M-6,0H0V300H-6"></path><text transform="rotate(-90)" y="6" dy=".71em" style="text-anchor: end; ">MPG</text></g></g></svg>